<svg width="25" height="22" viewBox="0 0 25 22" fill="none" xmlns="http://www.w3.org/2000/svg">
<rect x="0.5" y="1.25" width="24" height="20" rx="5.5" fill="white" fill-opacity="0.3"/>
<rect x="0.5" y="1.25" width="24" height="20" rx="5.5" stroke="#141414"/>
<rect x="5" y="3.75" width="15" height="15" rx="7.5" fill="#141414"/>
<g clip-path="url(#clip0_5210_43)">
<mask id="mask0_5210_43" style="mask-type:luminance" maskUnits="userSpaceOnUse" x="9" y="7" width="8" height="9">
<path d="M16.7497 7.63086H9V15.303H16.7497V7.63086Z" fill="white"/>
</mask>
<g mask="url(#mask0_5210_43)">
<path d="M15.4361 15.3031H9V8.87585H10.4726V14.0574H15.4361V15.3024V15.3031Z" fill="white"/>
<path d="M15.4361 10.1208C16.1615 10.1208 16.7496 9.56342 16.7496 8.87586C16.7496 8.1883 16.1615 7.63092 15.4361 7.63092C14.7106 7.63092 14.1225 8.1883 14.1225 8.87586C14.1225 9.56342 14.7106 10.1208 15.4361 10.1208Z" fill="white"/>
</g>
</g>
<defs>
<clipPath id="clip0_5210_43">
<rect width="8" height="8" fill="white" transform="translate(9 7.5)"/>
</clipPath>
</defs>
</svg>
