<svg width="22" height="22" viewBox="0 0 22 22" fill="none" xmlns="http://www.w3.org/2000/svg">
<g clip-path="url(#clip0_9411_16067)">
<path d="M7.87816 9.14267C7.15726 9.85187 5.98847 9.85187 5.26757 9.14267L1.46063 5.39751C1.15754 5.09933 1.21602 4.59703 1.58463 4.38211C2.8462 3.64663 4.5 3.81259 5.58472 4.87971L8.89822 8.13916L7.87816 9.14267Z" fill="#14904F"/>
<path d="M14.6776 13.0278C13.9567 13.737 13.9567 14.8868 14.6776 15.596L18.4843 19.3409C18.7874 19.6391 19.298 19.5815 19.5164 19.2189C20.2641 17.9778 20.0954 16.3509 19.0106 15.2837L15.6974 12.024L14.6774 13.0275L14.6776 13.0278Z" fill="#14904F"/>
<path d="M7.43473 13.0278C8.15563 13.737 8.15563 14.8868 7.43473 15.596L3.62807 19.3409C3.32498 19.6391 2.81439 19.5815 2.59593 19.2189C1.84831 17.9778 2.01701 16.3509 3.10174 15.2837L6.41495 12.024L7.43501 13.0275L7.43473 13.0278Z" fill="#14904F"/>
<path d="M14.234 9.14267C14.9549 9.85187 16.1237 9.85187 16.8446 9.14267L20.6512 5.39751C20.9543 5.09933 20.8958 4.59703 20.5272 4.38211C19.2656 3.64663 17.6118 3.81259 16.5271 4.87971L13.2136 8.13916L14.2337 9.14267H14.234Z" fill="#14904F"/>
<path d="M12.1557 18.9221C12.319 18.5108 12.0857 18.1742 11.6366 18.1742H10.4757C10.0267 18.1742 9.79334 18.5108 9.95669 18.9221L10.7588 20.9416C10.9222 21.3529 11.1896 21.3529 11.3532 20.9416L12.1554 18.9221H12.1557Z" fill="#14904F"/>
<path d="M11.0563 0.25C9.68031 0.25 8.56494 1.34727 8.56494 2.70095V6.83418H13.548V2.70095C13.548 1.34727 12.4326 0.25 11.0566 0.25H11.0563Z" fill="#14904F"/>
<path d="M11.0455 19.5516C6.5059 19.5516 2.81274 15.9184 2.81274 11.4525V11.447C2.81274 6.98116 6.5059 3.34793 11.0455 3.34793C15.585 3.34793 19.2782 6.98116 19.2782 11.447V11.4525C19.2782 15.9184 15.585 19.5516 11.0455 19.5516Z" fill="#0F5429"/>
<g clip-path="url(#clip1_9411_16067)">
<rect x="4.02173" y="4.53729" width="14.0581" height="13.83" rx="6.91499" fill="#14904F"/>
<rect x="3.74048" y="3.9841" width="14.6486" height="14.4108" rx="7.20542" fill="#141414"/>
<path d="M10.4174 9.64608L8.01412 11.2027C7.94316 11.2484 7.94316 11.3505 8.01412 11.3969L10.4387 12.9675C10.5625 13.0472 10.6366 13.1833 10.6366 13.328V15.7945C10.6366 15.8943 10.5222 15.9523 10.4395 15.8958L6.14781 12.9574C6.03663 12.8816 5.97119 12.757 5.97119 12.6247V9.97412C5.97119 9.84182 6.03742 9.71726 6.14781 9.64144L10.4395 6.70301C10.523 6.64576 10.6366 6.70456 10.6366 6.80436V9.24532C10.6366 9.40624 10.5538 9.55711 10.4174 9.64608Z" fill="#FAF0F0"/>
<path d="M16.1583 9.97379V12.6244C16.1583 12.7567 16.0921 12.8813 15.9817 12.9571L11.69 15.8955C11.6065 15.9528 11.4929 15.894 11.4929 15.7942V13.3277C11.4929 13.1822 11.567 13.0468 11.6908 12.9671L14.1154 11.3966C14.1863 11.3509 14.1863 11.2488 14.1154 11.2024L11.7121 9.64575C11.5749 9.55678 11.4929 9.40668 11.4929 9.24498V6.80403C11.4929 6.70423 11.6072 6.6462 11.69 6.70268L15.9817 9.64111C16.0929 9.71693 16.1583 9.84149 16.1583 9.97379Z" fill="#FAF0F0"/>
</g>
</g>
<defs>
<clipPath id="clip0_9411_16067">
<rect width="20.7042" height="21" fill="white" transform="translate(0.704102 0.25)"/>
</clipPath>
<clipPath id="clip1_9411_16067">
<rect x="4.02173" y="4.53729" width="14.0581" height="13.83" rx="6.91499" fill="white"/>
</clipPath>
</defs>
</svg>
