<svg width="21" height="22" viewBox="0 0 21 22" fill="none" xmlns="http://www.w3.org/2000/svg">
<g clip-path="url(#clip0_9411_16048)">
<path d="M7.17406 9.14267C6.45316 9.85187 5.28437 9.85187 4.56347 9.14267L0.756533 5.39751C0.45344 5.09933 0.511922 4.59703 0.880526 4.38211C2.1421 3.64663 3.7959 3.81259 4.88062 4.87971L8.19412 8.13916L7.17406 9.14267Z" fill="#14904F"/>
<path d="M13.9735 13.0278C13.2526 13.737 13.2526 14.8868 13.9735 15.596L17.7802 19.3409C18.0833 19.6391 18.5939 19.5815 18.8123 19.2189C19.5599 17.9778 19.3913 16.3509 18.3065 15.2837L14.9933 12.024L13.9733 13.0275L13.9735 13.0278Z" fill="#14904F"/>
<path d="M6.73063 13.0278C7.45153 13.737 7.45153 14.8868 6.73063 15.596L2.92397 19.3409C2.62088 19.6391 2.11029 19.5815 1.89182 19.2189C1.14421 17.9778 1.31291 16.3509 2.39763 15.2837L5.71085 12.024L6.73091 13.0275L6.73063 13.0278Z" fill="#14904F"/>
<path d="M13.5299 9.14267C14.2508 9.85187 15.4195 9.85187 16.1404 9.14267L19.9471 5.39751C20.2502 5.09933 20.1917 4.59703 19.8231 4.38211C18.5615 3.64663 16.9077 3.81259 15.823 4.87971L12.5095 8.13916L13.5296 9.14267H13.5299Z" fill="#14904F"/>
<path d="M11.4516 18.9221C11.6149 18.5108 11.3816 18.1742 10.9325 18.1742H9.77162C9.3226 18.1742 9.08924 18.5108 9.25259 18.9221L10.0547 20.9416C10.2181 21.3529 10.4855 21.3529 10.6491 20.9416L11.4513 18.9221H11.4516Z" fill="#14904F"/>
<path d="M10.3522 0.25C8.97621 0.25 7.86084 1.34727 7.86084 2.70095V6.83418H12.8439V2.70095C12.8439 1.34727 11.7285 0.25 10.3525 0.25H10.3522Z" fill="#14904F"/>
<path d="M10.3414 19.5516C5.8018 19.5516 2.10864 15.9184 2.10864 11.4525V11.447C2.10864 6.98116 5.8018 3.34793 10.3414 3.34793C14.8809 3.34793 18.5741 6.98116 18.5741 11.447V11.4525C18.5741 15.9184 14.8809 19.5516 10.3414 19.5516Z" fill="#0F5429"/>
<g clip-path="url(#clip1_9411_16048)">
<rect x="3.31763" y="4.53729" width="14.0581" height="13.83" rx="6.91499" fill="#14904F"/>
<rect x="2.05249" y="3.01599" width="16.6167" height="16.347" rx="8.17352" fill="#141414"/>
<g clip-path="url(#clip2_9411_16048)">
<mask id="mask0_9411_16048" style="mask-type:luminance" maskUnits="userSpaceOnUse" x="6" y="7" width="10" height="9">
<path d="M15.0685 7.24536H6.48364V15.6065H15.0685V7.24536Z" fill="white"/>
</mask>
<g mask="url(#mask0_9411_16048)">
<path d="M13.6134 15.6065H6.48364V8.60211H8.11495V14.249H13.6134V15.6058V15.6065Z" fill="white"/>
<path d="M13.6133 9.95885C14.417 9.95885 15.0685 9.35141 15.0685 8.6021C15.0685 7.85279 14.417 7.24536 13.6133 7.24536C12.8097 7.24536 12.1582 7.85279 12.1582 8.6021C12.1582 9.35141 12.8097 9.95885 13.6133 9.95885Z" fill="white"/>
</g>
</g>
</g>
</g>
<defs>
<clipPath id="clip0_9411_16048">
<rect width="20.7042" height="21" fill="white" transform="translate(0 0.25)"/>
</clipPath>
<clipPath id="clip1_9411_16048">
<rect x="3.31763" y="4.53729" width="14.0581" height="13.83" rx="6.91499" fill="white"/>
</clipPath>
<clipPath id="clip2_9411_16048">
<rect width="8.86223" height="8.71842" fill="white" transform="translate(6.48364 7.10275)"/>
</clipPath>
</defs>
</svg>
